<svg xmlns="http://www.w3.org/2000/svg" viewBox="0 0 40 40"><path d="M26.67 28.98v-1.83a9.923 9.923 0 0 0 4.44-8.26c0-5.52 0-10-6.67-10s-6.67 4.48-6.67 10a9.947 9.947 0 0 0 4.44 8.26v1.83c-7.54.62-13.33 4.32-13.33 8.8H40c0-4.48-5.8-8.18-13.33-8.8zm-15.31.86c2.13-1.34 4.48-2.28 6.94-2.79-.54-.63-1.01-1.32-1.41-2.05-1.04-1.87-1.6-3.97-1.61-6.11 0-2.99 0-5.81 1.06-8.12a7.243 7.243 0 0 1 5.53-4.15c-.59-2.66-2.15-4.4-6.31-4.4-6.67 0-6.67 4.48-6.67 10a9.957 9.957 0 0 0 4.45 8.26v1.83C5.79 22.93 0 26.63 0 31.11h9.69c.52-.46 1.08-.89 1.67-1.27z"></path></svg>