<svg xmlns="http://www.w3.org/2000/svg" viewBox="0 0 60 60"><path d="M30.2 29.5h-2.9c1.7-3.7 2.8-7.7 3.3-11.8l.5-3.8c.1-.6-.4-1.2-1-1.3-.3 0-.7.1-.9.3l-.4.4c-1.6 1.5-3.1 3.2-4.4 5 1-4.9 2.4-9.9 3.8-13.1.3-.6 0-1.3-.6-1.6-.4-.2-.8-.1-1.2.1-2.3 1.7-4.4 3.7-6.2 6 .3-2.8 1.1-5.5 2.2-8 .3-.6 0-1.3-.6-1.6-.3-.1-.7-.1-1 0l-2.2 1.1c-3.3 1.6-5.7 4.7-6.5 8.4-1.6-1.9-3.6-3.4-5.8-4.4l-3-1.6c-.6-.3-1.3 0-1.5.6-.2.3-.1.7 0 1.1l.2.3C4.2 9.5 5.8 13.7 6.9 18c-.8-.6-1.7-1.1-2.6-1.5l-2.6-1.3c-.6-.3-1.3 0-1.6.6-.2.3-.2.7 0 1.1l.2.3c2.1 3.9 3.7 8 4.5 12.4H1.2c-.6 0-1.2.5-1.2 1.2v19.4C0 55.6 4.4 60 9.9 60h11.6c5.5 0 9.9-4.4 9.9-9.9V30.7c0-.6-.5-1.2-1.2-1.2zM28.4 17l-.1.4c-.5 4.2-1.7 8.3-3.6 12.1h-3c1.2-4.6 3.5-8.9 6.7-12.5zm-3.9-8.5c-1.6 5.3-2.8 10.7-3.6 16.2-.6 1.6-1.2 3.2-1.6 4.8h-3.7c.1-7.9 3.3-15.5 8.9-21zm-10.1 3.6c0-3.5 1.8-6.7 4.8-8.5-1 2.9-1.5 6-1.5 9.1v.5c-.4.6-.7 1.2-1 1.8-.2.5-.5.9-.7 1.4-.4-1.4-1-2.8-1.7-4.1.1 0 .1-.1.1-.2zM5.5 7.2c5.4 2.6 8.9 8 8.9 14-.7 2.7-1.1 5.5-1.1 8.3H13c-.1-2.6-.9-5.2-2.3-7.4-.2-.4-.5-.7-.8-1.1-.8-4.7-2.3-9.4-4.4-13.8zM3.8 18.9c4 2.1 6.6 6.2 6.9 10.7H7.2c-.7-3.8-1.8-7.3-3.4-10.7zm17.7 38.8H9.9c-4.2 0-7.6-3.4-7.6-7.6v-13h16.1c.6 0 1.2-.5 1.2-1.2s-.5-1.2-1.2-1.2H2.3v-2.9H29V50c.1 4.3-3.3 7.6-7.5 7.7zm38.2-15.5c-.2-.3-.6-.4-.9-.4h-6.3v-8.7c0-.5 0-1-.1-1.4l4.3-2.9c2.6-1.7 3.2-5.2 1.5-7.8-.5-.7-1.1-1.3-1.9-1.8-1.9-.9-4.1-.8-5.8.4v-3.2c0-2.5-2-4.5-4.5-4.5-.7 0-1.4.2-2 .5-2.2 1.2-2.9 3.9-1.7 6.1.3.6.8 1.1 1.4 1.5l4.6 3.1c-.1.3-.1.7-.1 1v2c-.7-.4-6.9-2.9-7.8-3-.2 0-.4 0-.5.1h-.1c-.1 0-.2.1-.3.2l-.2.2c0 .1-.1.1-.1.2l-.1.1c-.8 1.7-1.9 9.6-1.3 11.4.5 1.6 1.6 3 3 4l3.7 2.5h-7.9c-.6 0-1.2.5-1.2 1.2v.3l3.9 15.9c.1.5.6.9 1.1.9h14.4c.5 0 1-.4 1.1-.9l4.1-16c0-.4 0-.8-.3-1zM48.1 20.3l-3.2-2.1c-.9-.6-1.2-1.9-.6-2.8s1.9-1.2 2.8-.6c.6.4.9 1 .9 1.7v3.8zm2.3 3.9c0-.7.2-1.4.7-2 1.1-1.4 3.1-1.6 4.4-.5 1.4 1.1 1.6 3.1.5 4.4-.2.3-.5.5-.7.7l-3.8 2.6c-.2-.3-.4-.7-.7-1-.1-.2-.3-.3-.4-.5v-3.7zm-8.3 13.1c-1-.7-1.7-1.6-2.1-2.7-.3-1.1.4-6.5.9-8.8 2.1.7 6.8 2.8 7.5 3.4l.1.1c.2.2.4.4.5.6.7.9 1.1 2.1 1.1 3.3v8.7h-1.5l-6.5-4.6zM56.4 48h-13c-.6 0-1.2.5-1.2 1.2 0 .6.5 1.2 1.2 1.2h12.4L54 57.7H41.4l-3.3-13.6h19.3l-1 3.9z"></path></svg>