<svg xmlns="http://www.w3.org/2000/svg" viewBox="0 0 60 60"><path d="M54.6 47.1c-.7-2.7-3.5-4.2-6.2-3.5-.1 0-.3.1-.4.1l-1.2.5V31.5h.5c1.4 0 2.6-1.2 2.6-2.6v-4.3c0-1.4-1.2-2.6-2.6-2.6H34.2v-3.5h2.7c4.6 0 8.4-3.7 8.4-8.4-.1-.5-.6-1.1-1.3-1.1h-3.8c-2.3 0-4.4.9-6 2.6V8.4c0-4.6-3.7-8.4-8.4-8.4H22c-.6 0-1.2.5-1.2 1.2 0 4.6 3.7 8.4 8.4 8.4h2.7v12.5H18.8c-1.4 0-2.6 1.2-2.6 2.6V29c0 1.4 1.2 2.6 2.6 2.6h.5v6.1c-2.5.3-4.9 1.4-6.7 3.2-1.2 1.2-2.6 2.1-4.2 2.7l-2.3.6c-.5.1-.9.6-.9 1.1v13.6c0 .6.5 1.2 1.2 1.2.1 0 .3 0 .4-.1l11.3-4c.8-.2 1.6-.2 2.4 0l10.4 2.9c2.3.6 4.7.5 7-.4l13.9-5.6c2.2-.9 3.5-3.4 2.8-5.8zM40.2 11.4h2.5c-.6 2.8-3 4.8-5.9 4.8h-2.5c.6-2.8 3-4.8 5.9-4.8zm-11-4.2c-2.9 0-5.3-2-5.9-4.8h2.5c2.9 0 5.3 2 5.9 4.8h-2.5zM18.5 28.9v-4.3c0-.1.1-.2.2-.2h28.5c.1 0 .2.1.2.2v4.3c0 .1-.1.2-.2.2h-9c-.6 0-1.2.5-1.2 1.2 0 .6.5 1.2 1.2 1.2h6.2v13.7l-8.3 3.3-.2.1c1.4-2.5.4-5.7-2.1-7l-.6-.3-8.4-2.8c-1-.4-2.1-.7-3.2-.8v-6.1H28c.6 0 1.2-.5 1.2-1.2 0-.6-.5-1.2-1.2-1.2h-9.2c-.1-.1-.3-.2-.3-.3zm32.3 21.9L37 56.4c-1.7.7-3.6.8-5.4.3l-10.4-2.9c-1.2-.3-2.5-.3-3.7 0h-.1l-9.8 3.4V46.1l1.4-.4c2-.6 3.7-1.7 5.2-3.2 1.7-1.6 3.9-2.6 6.2-2.6 1.3.1 2.5.4 3.7.8l8.4 2.8c1.4.6 2.1 2.2 1.6 3.6-.1.4-.3.7-.6.9-.7.7-1.8.9-2.7.7l-6-1.8c-.6-.2-1.3.2-1.5.8-.2.6.2 1.3.8 1.5l6 1.8c2.3.7 4.8.6 7-.3L49 46c1.3-.5 2.8.1 3.4 1.5.4 1.2-.3 2.7-1.6 3.3z"></path></svg>