<svg xmlns="http://www.w3.org/2000/svg" viewBox="0 0 60 60"><path d="M22.6 34.7s-5-.8-7.3-3.1L12.7 29c-.9-.9-2.1-1.4-3.3-1.4v-9.4c0-2.6-2.2-4.7-4.8-4.6-2.5 0-4.6 2.1-4.6 4.6v16C0 40 3.3 45.3 8.4 47.9l5.7 2.8V57c0 .6.5 1.2 1.2 1.2h12.5c.6 0 1.2-.5 1.2-1.2V41.7c-.1-3.6-2.8-6.6-6.4-7zm4 21.2H16.5V50c0-.4-.3-.8-.7-1l-6.3-3.2c-4.4-2.2-7.2-6.7-7.1-11.6v-16c0-1.3 1.1-2.4 2.4-2.4S7 16.9 7 18.2v10c-2.2 1.3-3 4.2-1.7 6.4.2.4.5.7.7 1l6 6c.4.5 1.2.5 1.7.1s.5-1.2.1-1.7l-.1-.1-6-6c-.9-.9-.9-2.4 0-3.3.2-.2.5-.4.9-.6.9-.3 1.8-.1 2.4.6l2.6 2.6c2.7 2.7 8.7 3.8 8.7 3.8 2.4.2 4.2 2.2 4.2 4.6v14.3zm28.8-42.3c-2.6 0-4.7 2-4.8 4.6v9.4c-1.2 0-2.4.5-3.3 1.4l-2.6 2.6c-2.3 2.3-7.3 3.1-7.3 3.1-3.6.4-6.3 3.4-6.3 6.9V57c0 .6.5 1.2 1.2 1.2h12.5c.6 0 1.2-.5 1.2-1.2v-6.3l5.7-2.8c5-2.6 8.3-7.9 8.3-13.7v-16c0-2.5-2.1-4.6-4.6-4.6zm2.2 20.6c0 4.9-2.8 9.4-7.1 11.6L44.2 49c-.4.2-.6.6-.6 1.1V56H33.4V41.7c0-2.4 1.8-4.4 4.2-4.6 0 0 6-1 8.7-3.8l2.6-2.6c.6-.6 1.6-.9 2.4-.6.3.1.6.3.9.6.9.9.9 2.4 0 3.3l-6 6-.1.1c-.4.5-.4 1.2.1 1.7.5.4 1.2.4 1.7-.1l6-6c.3-.3.5-.6.7-1 1.3-2.2.5-5.1-1.7-6.4v-10c0-1.3 1.1-2.4 2.4-2.4 1.3 0 2.4 1.1 2.4 2.4l-.1 15.9zm-26.3-8.9h4.5c6.6 0 11.9-5.4 12-12V7.7c0-.6-.5-1.2-1.2-1.2-.3 0-.6.1-.8.3-1.3 1.3-3 2-4.8 2-3.8 0-7.4 1.8-9.6 4.8V3c0-.6-.5-1.2-1.2-1.2s-1.3.5-1.3 1.2v6c-2.3-3-5.8-4.8-9.6-4.8-1.8 0-3.6-.7-4.8-2-.5-.5-1.2-.5-1.7 0-.2.2-.3.5-.3.8v5.7c0 6.6 5.4 11.9 12 12H29v8.2c0 .6.5 1.2 1.2 1.2.6 0 1.2-.5 1.2-1.2v-3.6zm0-4.5c0-5.3 4.3-9.6 9.6-9.6 1.6 0 3.1-.4 4.5-1.2v3.3c0 5.3-4.3 9.6-9.6 9.6h-2.1l6.6-4.9c.5-.4.6-1.1.2-1.6-.4-.5-1.1-.6-1.6-.2l-7.5 5.6v-1zm-2.4-3.7-7.5-5.6c-.5-.4-1.3-.3-1.6.2-.4.5-.3 1.3.2 1.6l6.6 4.9h-2.1c-5.3 0-9.6-4.3-9.6-9.6V5.3c1.4.8 2.9 1.2 4.5 1.2 5.3 0 9.6 4.3 9.6 9.6v1z"></path></svg>