<svg xmlns="http://www.w3.org/2000/svg" viewBox="0 0 60 60"><path d="M44.6 44.4c7.1-3.1 11.8-11.8 11.8-21.6.1-5.7-1.7-11.4-5-16C48.1 2.4 43.7 0 39 0c-4.8.1-9.1 2.4-12 6.2-2.9 3.7-4.7 8.1-5.3 12.8 0 .2-.1.3-.2.4s-.3.1-.5.1c-.9-.1-1.7-.2-2.6-.2-4.3 0-8 1.4-10.8 4.2-3.3 3.3-4.8 8.2-4 13.6 1.1 5.7 3.9 10.9 8 14.9 4 4.1 9.3 6.9 14.9 7.8.9.1 1.9.2 2.9.2 3.9.2 7.5-1.2 10.3-3.8 2.8-2.6 4.5-6.1 4.6-10V45c-.1-.2.1-.5.3-.6zM28.8 7.7C31 4.8 34.4 2.8 38 2.4c.2 0 .5.1.6.3 4 5.9 3.8 13.7-.6 19.4-.9 1.2-1.6 2.4-2.2 3.7-.1.2-.2.3-.4.3h-.1c-.1 0-.3-.1-.4-.2-3-2.6-6.5-4.7-10.3-5.8-.3-.1-.5-.4-.4-.6.3-4.2 2-8.4 4.6-11.8zm6.4 48.6c-1.9.9-4 1.3-6 1.3-.8 0-1.6-.1-2.4-.2-5.1-.9-9.9-3.4-13.5-7.1-3.8-3.6-6.3-8.4-7.2-13.5-.7-3.8.3-7.8 2.7-10.9.1-.2.4-.3.6-.2 7 1.4 12.4 7 13.3 14.1 1 7.1 5.7 13 12.5 15.4.2.1.4.3.4.6 0 .2-.1.4-.4.5zm3.8-2.9c-.1.2-.3.2-.5.2h-.1c-7-1.4-12.4-7-13.3-14.1-1-7.1-5.7-13-12.5-15.4-.2-.1-.4-.3-.4-.6 0-.2.1-.5.4-.6 2.7-1.2 5.6-1.6 8.5-1.1 5.1.9 9.9 3.4 13.5 7.1 3.7 3.6 6.2 8.4 7.1 13.5.7 4-.3 7.9-2.7 11zm4.9-12.1s0-.1 0 0c-1-4.7-3.1-9-6.3-12.5-.2-.2-.2-.4-.1-.6.6-1.7 1.4-3.2 2.5-4.6 4.2-5.7 5-13.3 2-19.7-.1-.2-.1-.5.1-.7.1-.2.4-.3.6-.2 2.7 1 5.1 2.8 6.8 5.2 3 4.2 4.6 9.4 4.5 14.6.1 4.5-1.1 8.9-3.3 12.8-1.4 2.5-3.4 4.6-5.9 6.1-.1.1-.2.1-.4.1h-.1c-.2-.1-.4-.3-.4-.5z"></path></svg>